PathFileType	4	(X/Y/Z)	C:/Users/beibeiliu/ov580/test_trc/User2\sequence.6_training_dense_right.trc
DataRate	CameraRate	NumFrames	NumMarkers	Units	OrigDataRate	OrigDataStartFrame	OrigNumFrames
120	120	14	19	mm	120	286	381
Frame#	Time	ThumbCMC			ThumbMCP			ThumbIP			ThumbTip			IndexMCP			IndexPIP			IndexTip			MiddleMCP			MiddlePIP			MiddleTip			RingMCP			RingPIP			RingTip			PinkyMCP			PinkyPIP			PinkyTip			BackHand1			BackHand2			BackHand3	
		X0	Y0	Z0	X1	Y1	Z1	X2	Y2	Z2	X3	Y3	Z3	X4	Y4	Z4	X5	Y5	Z5	X6	Y6	Z6	X7	Y7	Z7	X8	Y8	Z8	X9	Y9	Z9	X10	Y10	Z10	X11	Y11	Z11	X12	Y12	Z12	X13	Y13	Z13	X14	Y14	Z14	X15	Y15	Z15	X16	Y16	Z16	X17	Y17	Z17	X18	Y18	Z18	
285	2.375	22.0139	25.3167	102.968	9.32406	-10.2295	110.244	5.46918	-44.71	109.096	25.1651	-65.1509	96.9381	12.6452	-9.29164	32.0144	8.31441	-41.9957	22.7965	0.48118	-61.7956	51.07	29.2772	-36.1375	40.6098	20.4005	-64.5899	66.1032	23.8691	-47.1727	100.557	49.9603	-49.9201	58.9914	40.6231	-63.8707	82.8978	39.4037	-40.9862	114.363	68.2836	-48.3222	71.6011	52.081	-51.9041	101.195	48.1775	-29.6225	119.155	72.3967	14.6744	57.0859	84.129	38.2747	74.8879	46.273	41.0092	70.1391	
286	2.38333	22.5236	21.3738	103.065	5.66814	-14.0024	108.174	0.333659	-48.7817	104.633	18.6772	-70.5488	91.6165	16.1006	-6.19404	28.8467	6.28685	-31.999	12.1396	-3.75631	-61.8989	28.4174	30.2571	-39.8713	36.1964	21.456	-66.3358	57.5197	17.2462	-49.5952	96.0962	46.3497	-51.3937	52.9892	34.812	-65.9756	79.2722	31.61	-48.9653	106.967	68.0997	-49.2821	66.083	49.914	-57.7826	93.7844	44.6139	-31.5858	115.556	75.84	10.4064	59.0661	87.1016	35.3389	80.2511	46.2017	39.1251	69.8405	
287	2.39167	20.2705	21.1971	105.374	4.20538	-16.0764	106.029	-3.95782	-49.4942	98.5969	14.2017	-70.1901	84.7158	15.7825	-0.749992	26.5582	2.3265	-22.3823	4.01344	-6.70059	-58.027	7.03616	27.4047	-33.0186	32.2613	16.5421	-65.1097	49.3597	13.6582	-51.6809	91.305	48.0526	-50.4488	47.9928	31.3993	-68.3729	72.6028	30.1483	-52.5791	106.699	64.7289	-53.8621	62.6486	46.0396	-60.0918	91.9241	41.1158	-38.3922	106.966	78.5274	7.85025	57.8026	88.3303	27.8184	80.416	46.8788	35.79	73.3447	
288	2.4	20.698	19.3722	106.869	0.0945822	-17.7045	101.233	-6.75635	-51.5291	90.0823	8.17572	-73.9103	75.0944	18.662	0.966835	23.7457	8.65973	-15.2326	-0.817247	-4.88552	-47.0187	-10.4493	27.9486	-34.8923	27.034	15.5348	-64.072	45.5129	11.1733	-55.5034	82.9447	44.2133	-46.2525	42.5075	30.0582	-69.1447	63.3927	23.2313	-54.5261	97.546	61.8775	-56.0475	58.4397	45.7623	-65.4512	83.8671	39.8767	-35.102	103.72	78.6137	7.40482	60.5141	87.1223	26.8932	82.1667	53.9165	32.1984	75.604	
289	2.40833	24.4659	18.7019	101.842	0.97688	-13.5881	98.4383	-12.1001	-46.0476	87.8883	3.48201	-68.2943	73.2481	21.7738	5.5713	21.5019	15.0094	-12.1005	-4.64365	0.0929401	-34.8907	-18.2446	29.2405	-29.6122	23.8509	15.552	-61.1055	36.4973	11.898	-55.681	77.6026	42.955	-49.9035	38.8388	27.3729	-70.1322	58.9793	23.3477	-57.9129	92.2076	60.0324	-59.2329	55.5176	38.7533	-62.3105	79.2356	38.4174	-41.3197	99.3927	84.06	0.0820649	61.2306	96.4523	19.4198	85.7018	57.7976	32.4402	72.1622	
290	2.41667	29.1789	21.5119	96.7429	3.72495	-10.7402	90.0612	-9.697	-41.3646	76.653	0.934203	-65.6368	63.073	31.5041	6.09795	13.339	24.6441	-13.6717	-12.04	10.2562	-36.6529	-19.9499	35.8069	-32.8105	18.5305	13.6136	-58.9557	31.776	8.55793	-50.5055	71.5745	45.7103	-48.2836	34.6894	25.4195	-67.5283	53.8285	17.9795	-53.2615	85.4271	64.0491	-59.8724	54.0235	35.2296	-61.3865	75.1985	37.0787	-39.5634	99.7438	89.3436	-6.20449	59.0399	101.811	12.2132	84.6746	66.6024	28.6297	68.6277	
291	2.425	38.6868	21.5685	88.5585	6.67979	-2.83851	81.5181	-5.9178	-31.1342	68.9383	-1.26952	-59.4035	55.6279	47.1856	3.73645	10.0639	37.9564	-15.223	-13.7032	12.4618	-40.1931	-14.5708	47.8844	-31.6039	15.7477	18.2677	-54.9375	23.0612	7.11904	-46.6868	60.1277	47.9214	-52.2414	30.8105	26.2016	-64.814	44.8313	16.6178	-46.8179	77.5243	62.8542	-62.0096	53.2375	33.7376	-62.5765	72.965	34.0703	-38.5521	95.2971	95.2578	-10.6867	58.3698	104.591	5.19893	84.6307	80.3144	25.9232	68.9986	
292	2.43333	47.3846	26.1032	83.5022	14.4364	6.569	75.2326	-5.80238	-23.8822	57.5889	-0.898352	-51.783	47.4285	61.6094	1.55129	7.28714	49.7409	-19.2624	-17.0252	19.9561	-36.4305	-7.41068	55.1387	-33.4692	9.81403	25.6434	-51.9635	13.7947	11.3586	-43.0076	53.7017	55.3411	-54.2643	28.1807	25.2546	-59.948	42.5203	18.8232	-45.9386	69.9298	64.5386	-61.0102	49.0845	31.7594	-59.43	67.1051	31.0347	-34.0471	86.3594	101.894	-18.4707	55.9368	115.317	-1.48037	88.1055	89.91	21.9294	64.4399	
293	2.44167	57.0236	28.6703	74.0796	27.485	9.88492	66.8825	4.03929	-13.0526	53.7548	-1.6488	-41.7871	42.6248	75.3466	-4.10473	3.98419	56.6022	-25.2568	-17.8254	28.3986	-30.8067	-4.07016	65.4283	-35.3742	8.31884	26.8205	-47.7303	10.2727	11.4401	-36.12	43.249	58.5068	-51.9802	26.6049	27.3776	-56.7231	38.5119	19.0408	-35.9354	64.3475	61.2844	-60.9904	46.9418	32.6859	-55.0302	59.8466	31.1127	-32.3937	78.0894	105.968	-20.7991	60.1708	121.449	-6.85013	90.077	100.135	20.3583	63.6859	
294	2.45	69.9505	30.3495	71.82	34.2265	17.8279	60.6461	10.4195	-2.92959	49.4803	3.06601	-33.0865	39.7726	84.5285	-11.0906	2.09605	62.1849	-27.9917	-20.2362	33.5418	-25.7612	-4.77651	69.9633	-39.453	7.56946	31.1101	-47.1272	9.91887	14.0042	-29.5428	39.8223	61.9173	-50.6872	25.3643	27.0879	-51.3704	35.2884	18.8383	-27.0313	58.8789	62.6056	-64.9002	49.8011	29.7579	-54.4116	58.5295	28.3972	-25.3925	71.4852	111.32	-29.3869	59.2137	123.625	-11.1127	90.6517	112.707	11.8509	61.6983	
295	2.45833	81.4527	32.5476	70.3167	44.4435	20.8294	56.6426	16.4162	3.05969	43.8688	6.19632	-24.9806	37.536	91.3834	-13.688	0.69516	69.0517	-30.8992	-22.6687	36.1275	-25.4589	-10.0264	72.562	-39.6761	7.65864	35.1447	-44.9677	4.2314	15.6214	-24.0746	32.5015	58.4649	-52.3883	25.9656	27.5828	-47.0123	32.5889	19.3839	-23.4912	58.1808	54.9144	-62.3765	48.0108	27.1565	-47.854	55.1604	27.3737	-22.4384	66.9698	110.054	-34.5727	62.9357	125.045	-22.2649	88.9351	118.337	5.37483	58.2227	
296	2.46667	89.9228	26.7194	67.9831	52.2054	21.015	55.9572	19.1352	7.0951	40.4048	7.65655	-19.1794	36.66	95.0793	-18.1427	0.801033	77.9071	-33.5579	-23.3517	40.3123	-29.2802	-20.4655	70.1975	-45.9796	9.25342	33.67	-42.953	4.87885	14.3194	-19.2948	30.9409	54.2724	-51.6218	26.0911	24.9579	-38.3971	32.6393	21.9373	-16.0694	55.1366	51.684	-61.3161	49.0016	25.4692	-46.5876	56.5623	25.5173	-14.498	71.9057	109.29	-40.0206	65.7026	124.381	-31.5186	91.7783	124.265	-1.55483	59.8872	
297	2.475	97.0064	25.4807	69.1539	57.0368	24.1955	53.2723	25.2272	13.3819	41.6194	8.70161	-13.3579	37.1986	97.9923	-25.9398	-0.146858	82.8806	-34.797	-23.862	44.7084	-33.2681	-32.0379	68.5515	-48.7344	9.54512	31.0296	-39.729	3.99986	13.8987	-19.7331	29.5468	55.5499	-52.256	29.2106	25.4158	-36.8944	32.6069	23.2098	-10.9492	58.2522	52.4239	-59.5308	52.3516	24.2262	-40.6185	56.3852	27.0913	-13.9746	69.3855	109.242	-46.3507	67.17	126.135	-31.2268	91.23	128.109	-7.47619	60.6692	
298	2.48333	103.621	25.435	68.4033	64.803	25.0946	53.0597	33.0772	13.5736	41.1152	13.8689	-7.63534	34.951	101.247	-27.1372	2.22353	85.6868	-36.2867	-28.7136	56.0497	-37.4017	-37.4554	72.4187	-47.8407	11.1528	35.1395	-40.4818	2.87562	15.2559	-14.5182	22.2684	55.4619	-51.1634	29.3231	28.8971	-38.172	32.8449	27.9677	-6.49001	56.3393	49.7535	-60.0787	53.4139	27.8174	-37.7258	52.5652	31.8954	-10.5029	66.0542	108.293	-50.0697	67.1842	128.182	-35.618	96.7485	127.288	-15.0197	63.6512	
